<svg width="256" height="256" viewBox="0 0 256 256" fill="none" xmlns="http://www.w3.org/2000/svg">
<path d="M71.75 146.75H184.25M71.75 146.75C57.9429 146.75 46.75 135.557 46.75 121.75M71.75 146.75C57.9429 146.75 46.75 157.943 46.75 171.75C46.75 185.557 57.9429 196.75 71.75 196.75H184.25C198.057 196.75 209.25 185.557 209.25 171.75C209.25 157.943 198.057 146.75 184.25 146.75M46.75 121.75C46.75 107.943 57.9429 96.75 71.75 96.75H184.25C198.057 96.75 209.25 107.943 209.25 121.75M46.75 121.75C46.75 113.636 49.3817 105.741 54.25 99.25L75.8125 70.5C81.124 63.418 89.46 59.25 98.3125 59.25H157.688C166.54 59.25 174.876 63.418 180.188 70.5L201.75 99.25C206.618 105.741 209.25 113.636 209.25 121.75M209.25 121.75C209.25 135.557 198.057 146.75 184.25 146.75M184.25 171.75H184.313V171.813H184.25V171.75ZM184.25 121.75H184.313V121.813H184.25V121.75ZM159.25 171.75H159.313V171.813H159.25V171.75ZM159.25 121.75H159.313V121.813H159.25V121.75Z" stroke="#0F172A" stroke-width="9.5" stroke-linecap="round" stroke-linejoin="round"/>
</svg>
