<svg width="64" height="64" viewBox="0 0 64 64" fill="none" xmlns="http://www.w3.org/2000/svg">
<g clip-path="url(#clip0_1_78)">
<circle cx="32" cy="32" r="32" fill="#E8E8E8"/>
<path d="M23 35H41M23 35C20.7909 35 19 33.2091 19 31M23 35C20.7909 35 19 36.7909 19 39C19 41.2091 20.7909 43 23 43H41C43.2091 43 45 41.2091 45 39C45 36.7909 43.2091 35 41 35M19 31C19 28.7909 20.7909 27 23 27H41C43.2091 27 45 28.7909 45 31M19 31C19 29.7018 19.4211 28.4386 20.2 27.4L23.65 22.8C24.4998 21.6669 25.8336 21 27.25 21H36.75C38.1664 21 39.5002 21.6669 40.35 22.8L43.8 27.4C44.5789 28.4386 45 29.7018 45 31M45 31C45 33.2091 43.2091 35 41 35M41 39H41.01V39.01H41V39ZM41 31H41.01V31.01H41V31ZM37 39H37.01V39.01H37V39ZM37 31H37.01V31.01H37V31Z" stroke="#0F172A" stroke-width="2.5" stroke-linecap="round" stroke-linejoin="round"/>
</g>
<defs>
<clipPath id="clip0_1_78">
<rect width="64" height="64" fill="white"/>
</clipPath>
</defs>
</svg>
