<svg width="64" height="64" viewBox="0 0 64 64" fill="none" xmlns="http://www.w3.org/2000/svg">
<path d="M18.5 36.5H45.5M18.5 36.5C15.1863 36.5 12.5 33.8137 12.5 30.5M18.5 36.5C15.1863 36.5 12.5 39.1863 12.5 42.5C12.5 45.8137 15.1863 48.5 18.5 48.5H45.5C48.8137 48.5 51.5 45.8137 51.5 42.5C51.5 39.1863 48.8137 36.5 45.5 36.5M12.5 30.5C12.5 27.1863 15.1863 24.5 18.5 24.5H45.5C48.8137 24.5 51.5 27.1863 51.5 30.5M12.5 30.5C12.5 28.5527 13.1316 26.6579 14.3 25.1L19.475 18.2C20.7498 16.5003 22.7504 15.5 24.875 15.5H39.125C41.2496 15.5 43.2502 16.5003 44.525 18.2L49.7 25.1C50.8684 26.6579 51.5 28.5527 51.5 30.5M51.5 30.5C51.5 33.8137 48.8137 36.5 45.5 36.5M45.5 42.5H45.515V42.515H45.5V42.5ZM45.5 30.5H45.515V30.515H45.5V30.5ZM39.5 42.5H39.515V42.515H39.5V42.5ZM39.5 30.5H39.515V30.515H39.5V30.5Z" stroke="#0F172A" stroke-width="3.5" stroke-linecap="round" stroke-linejoin="round"/>
</svg>
