<svg width="64" height="64" viewBox="0 0 64 64" fill="none" xmlns="http://www.w3.org/2000/svg">
<g clip-path="url(#clip0_1_71)">
<circle cx="32" cy="32" r="32" fill="#E8E8E8"/>
<path d="M22.001 31.999C22.001 37.5218 26.4781 41.999 32.001 41.999C37.5238 41.999 42.001 37.5218 42.001 31.999M22.001 31.999C22.001 26.4761 26.4781 21.999 32.001 21.999C37.5238 21.999 42.001 26.4761 42.001 31.999M22.001 31.999L20.001 31.999M42.001 31.999L44.001 31.999M42.001 31.999L32.001 31.999M20.7244 36.1032L22.6038 35.4192M41.3976 28.5788L43.277 27.8947M22.8083 39.7132L24.3404 38.4277M39.6612 25.5719L41.1933 24.2863M26.0008 42.3923L27.0008 40.6603M37.0008 23.3397L38.0008 21.6077M29.9171 43.8176L30.2644 41.848M33.7373 22.1519L34.0846 20.1823M34.0846 43.8177L33.7373 41.8481M30.2644 22.1519L29.9171 20.1823M38.0009 42.3921L37.0009 40.66M26.0009 21.6075L32.001 31.999M41.1935 39.7124L39.6614 38.4268M24.3406 25.5711L22.8085 24.2855M43.2773 36.1034L41.398 35.4194M22.6041 28.579L20.7247 27.8949M32.001 31.999L27.001 40.6592" stroke="#0F172A" stroke-width="2.5" stroke-linecap="round" stroke-linejoin="round"/>
</g>
<defs>
<clipPath id="clip0_1_71">
<rect width="64" height="64" fill="white"/>
</clipPath>
</defs>
</svg>
