<svg width="64" height="64" viewBox="0 0 64 64" fill="none" xmlns="http://www.w3.org/2000/svg">
<path d="M17.0015 31.9984C17.0015 40.2827 23.7172 46.9985 32.0015 46.9985C40.2857 46.9985 47.0015 40.2827 47.0015 31.9985M17.0015 31.9984C17.0015 23.7142 23.7172 16.9984 32.0015 16.9984C40.2857 16.9984 47.0015 23.7142 47.0015 31.9985M17.0015 31.9984L14.0015 31.9984M47.0015 31.9985L50.0015 31.9985M47.0015 31.9985L32.0015 31.9984M15.0866 38.1548L17.9057 37.1288M46.0964 26.8681L48.9155 25.8421M18.2124 43.5699L20.5105 41.6415M43.4919 22.3579L45.79 20.4295M23.0013 47.5885L24.5013 44.9904M39.5013 19.0096L41.0013 16.4115M28.8756 49.7265L29.3966 46.772M34.606 17.2278L35.1269 14.2734M35.127 49.7265L34.606 46.7721M29.3966 17.2279L28.8756 14.2735M41.0014 47.5881L39.5014 44.9901M23.0014 16.4112L32.0015 31.9984M45.7903 43.5686L43.4922 41.6403M20.5108 22.3566L18.2127 20.4283M48.916 38.1551L46.0969 37.1291M17.9062 26.8685L15.0871 25.8424M32.0015 31.9984L24.5015 44.9888" stroke="#0F172A" stroke-width="3.5" stroke-linecap="round" stroke-linejoin="round"/>
</svg>
