<svg width="256" height="256" viewBox="0 0 256 256" fill="none" xmlns="http://www.w3.org/2000/svg">
<path d="M65.5061 127.994C65.5061 162.511 93.4883 190.494 128.006 190.494C162.524 190.494 190.506 162.511 190.506 127.994M65.5061 127.994C65.5061 93.4757 93.4883 65.4935 128.006 65.4935C162.524 65.4935 190.506 93.4757 190.506 127.994M65.5061 127.994L53.0061 127.994M190.506 127.994L203.006 127.994M190.506 127.994L128.006 127.994M57.5274 153.645L69.2736 149.37M186.735 106.617L198.481 102.342M70.5517 176.208L80.1272 168.173M175.883 87.8244L185.458 79.7896M90.5053 192.952L96.7553 182.127M159.255 73.8734L165.505 63.0481M114.982 201.86L117.152 189.55M138.858 66.4491L141.029 54.139M141.029 201.861L138.858 189.55M117.152 66.4495L114.982 54.1394M165.506 192.951L159.256 182.125M90.5057 63.0468L128.006 127.994M185.46 176.203L175.884 168.168M80.1285 87.8193L70.5529 79.7844M198.483 153.646L186.737 149.371M69.2757 106.619L57.5295 102.343M128.006 127.994L96.7561 182.12" stroke="#0F172A" stroke-width="9.5" stroke-linecap="round" stroke-linejoin="round"/>
</svg>
