<svg width="64" height="64" viewBox="0 0 64 64" fill="none" xmlns="http://www.w3.org/2000/svg">
<path d="M39.1809 36.7392C39.3896 37.6256 39.5 38.5499 39.5 39.5C39.5 46.1274 34.1274 51.5 27.5 51.5V41.9006M39.1809 36.7392C46.6488 31.2822 51.5 22.4575 51.5 12.5C41.5429 12.5004 32.7189 17.3517 27.2624 24.8195M39.1809 36.7392C35.7638 39.2362 31.7988 41.028 27.5 41.9006M27.2624 24.8195C26.3755 24.6106 25.4507 24.5 24.5 24.5C17.8726 24.5 12.5 29.8726 12.5 36.5H22.1014M27.2624 24.8195C24.7657 28.2365 22.974 32.2014 22.1014 36.5M27.5 41.9006C27.2932 41.9426 27.0856 41.9825 26.8772 42.0202C25.0634 40.582 23.4198 38.9384 21.9816 37.1245C22.0194 36.9156 22.0593 36.7074 22.1014 36.5M17.6238 41.2815C15.4243 42.9223 14 45.5448 14 48.5C14 48.9737 14.0366 49.4389 14.1071 49.8929C14.5611 49.9634 15.0263 50 15.5 50C18.4552 50 21.0777 48.5757 22.7185 46.3762M41 26C41 27.6569 39.6569 29 38 29C36.3431 29 35 27.6569 35 26C35 24.3431 36.3431 23 38 23C39.6569 23 41 24.3431 41 26Z" stroke="#0F172A" stroke-width="3.5" stroke-linecap="round" stroke-linejoin="round"/>
</svg>
