<svg width="256" height="256" viewBox="0 0 256 256" fill="none" xmlns="http://www.w3.org/2000/svg">
<path d="M157.92 147.747C158.79 151.44 159.25 155.291 159.25 159.25C159.25 186.864 136.864 209.25 109.25 209.25V169.253M157.92 147.747C189.037 125.009 209.25 88.2395 209.25 46.75C167.762 46.7518 130.996 66.9655 108.26 98.0813M157.92 147.747C143.682 158.151 127.162 165.617 109.25 169.253M108.26 98.0813C104.565 97.2106 100.711 96.75 96.75 96.75C69.1358 96.75 46.75 119.136 46.75 146.75H86.756M108.26 98.0813C97.8571 112.319 90.3917 128.839 86.756 146.75M109.25 169.253C108.388 169.428 107.523 169.594 106.655 169.751C99.0976 163.758 92.2492 156.91 86.2566 149.352C86.4141 148.482 86.5806 147.614 86.756 146.75M68.0992 166.673C58.9345 173.51 53 184.437 53 196.75C53 198.724 53.1525 200.662 53.4464 202.554C55.3379 202.848 57.2761 203 59.25 203C71.5631 203 82.4902 197.066 89.327 187.901M165.5 103C165.5 109.904 159.904 115.5 153 115.5C146.096 115.5 140.5 109.904 140.5 103C140.5 96.0964 146.096 90.5 153 90.5C159.904 90.5 165.5 96.0964 165.5 103Z" stroke="#0F172A" stroke-width="9.5" stroke-linecap="round" stroke-linejoin="round"/>
</svg>
